<svg id="visual" viewBox="0 0 900 100" width="900" height="100" xmlns="http://www.w3.org/2000/svg" xmlns:xlink="http://www.w3.org/1999/xlink" version="1.1"><path d="M0 18L129 18L129 19L257 19L257 15L386 15L386 23L514 23L514 32L643 32L643 26L771 26L771 13L900 13L900 12L900 0L900 0L771 0L771 0L643 0L643 0L514 0L514 0L386 0L386 0L257 0L257 0L129 0L129 0L0 0Z" fill="#141b1f"></path><path d="M0 31L129 31L129 31L257 31L257 27L386 27L386 39L514 39L514 39L643 39L643 37L771 37L771 33L900 33L900 29L900 10L900 11L771 11L771 24L643 24L643 30L514 30L514 21L386 21L386 13L257 13L257 17L129 17L129 16L0 16Z" fill="#3c4245"></path><path d="M0 74L129 74L129 63L257 63L257 65L386 65L386 52L514 52L514 71L643 71L643 52L771 52L771 67L900 67L900 48L900 27L900 31L771 31L771 35L643 35L643 37L514 37L514 37L386 37L386 25L257 25L257 29L129 29L129 29L0 29Z" fill="#696d6f"></path><path d="M0 93L129 93L129 85L257 85L257 95L386 95L386 90L514 90L514 94L643 94L643 84L771 84L771 87L900 87L900 85L900 46L900 65L771 65L771 50L643 50L643 69L514 69L514 50L386 50L386 63L257 63L257 61L129 61L129 72L0 72Z" fill="#999b9c"></path><path d="M0 101L129 101L129 101L257 101L257 101L386 101L386 101L514 101L514 101L643 101L643 101L771 101L771 101L900 101L900 101L900 83L900 85L771 85L771 82L643 82L643 92L514 92L514 88L386 88L386 93L257 93L257 83L129 83L129 91L0 91Z" fill="#cccccc"></path></svg>